<mxfile host="localhost" modified="2020-05-16T20:18:52.585Z" agent="5.0 (Windows NT 10.0; Win64; x64) AppleWebKit/537.36 (KHTML, like Gecko) Code/1.45.1 Chrome/78.0.3904.130 Electron/7.2.4 Safari/537.36" etag="KyvnmkS0eNoqZdJMS4Qi" version="13.0.9">
    <diagram id="IRZpFGAbffpptSRkwxim" name="Page-1">
        <mxGraphModel dx="9476" dy="2392" grid="1" gridSize="5" guides="1" tooltips="1" connect="1" arrows="1" fold="1" page="0" pageScale="1" pageWidth="827" pageHeight="1169" math="0" shadow="0">
            <root>
                <mxCell id="0"/>
                <mxCell id="1" parent="0"/>
                <mxCell id="vGGuUEkwUBiNpvJsSytI-28" style="edgeStyle=orthogonalEdgeStyle;rounded=0;orthogonalLoop=1;jettySize=auto;html=1;exitX=0.75;exitY=0;exitDx=0;exitDy=0;entryX=0;entryY=0.5;entryDx=0;entryDy=0;" parent="1" source="vGGuUEkwUBiNpvJsSytI-2" target="vGGuUEkwUBiNpvJsSytI-7" edge="1">
                    <mxGeometry relative="1" as="geometry"/>
                </mxCell>
                <mxCell id="vGGuUEkwUBiNpvJsSytI-29" style="edgeStyle=orthogonalEdgeStyle;rounded=0;orthogonalLoop=1;jettySize=auto;html=1;exitX=1;exitY=0.5;exitDx=0;exitDy=0;entryX=0;entryY=0.75;entryDx=0;entryDy=0;" parent="1" source="vGGuUEkwUBiNpvJsSytI-2" target="vGGuUEkwUBiNpvJsSytI-5" edge="1">
                    <mxGeometry relative="1" as="geometry">
                        <Array as="points">
                            <mxPoint x="-8000" y="-1100"/>
                            <mxPoint x="-8000" y="-1045"/>
                            <mxPoint x="-7440" y="-1045"/>
                            <mxPoint x="-7440" y="-1082"/>
                        </Array>
                    </mxGeometry>
                </mxCell>
                <mxCell id="vGGuUEkwUBiNpvJsSytI-51" style="edgeStyle=orthogonalEdgeStyle;rounded=0;orthogonalLoop=1;jettySize=auto;html=1;exitX=0.75;exitY=1;exitDx=0;exitDy=0;entryX=0;entryY=0.5;entryDx=0;entryDy=0;" parent="1" source="vGGuUEkwUBiNpvJsSytI-2" target="vGGuUEkwUBiNpvJsSytI-23" edge="1">
                    <mxGeometry relative="1" as="geometry"/>
                </mxCell>
                <mxCell id="vGGuUEkwUBiNpvJsSytI-2" value="FTStore.WebAPI" style="rounded=1;whiteSpace=wrap;html=1;fillColor=#d5e8d4;strokeColor=#82b366;fontColor=#000000;" parent="1" vertex="1">
                    <mxGeometry x="-8200" y="-1135" width="170" height="70" as="geometry"/>
                </mxCell>
                <mxCell id="vGGuUEkwUBiNpvJsSytI-31" style="edgeStyle=orthogonalEdgeStyle;rounded=0;orthogonalLoop=1;jettySize=auto;html=1;exitX=0.75;exitY=0;exitDx=0;exitDy=0;entryX=0;entryY=0.5;entryDx=0;entryDy=0;" parent="1" source="vGGuUEkwUBiNpvJsSytI-7" target="vGGuUEkwUBiNpvJsSytI-9" edge="1">
                    <mxGeometry relative="1" as="geometry"/>
                </mxCell>
                <mxCell id="vGGuUEkwUBiNpvJsSytI-33" style="edgeStyle=orthogonalEdgeStyle;rounded=0;orthogonalLoop=1;jettySize=auto;html=1;exitX=0.75;exitY=1;exitDx=0;exitDy=0;entryX=0;entryY=0.25;entryDx=0;entryDy=0;" parent="1" source="vGGuUEkwUBiNpvJsSytI-7" target="vGGuUEkwUBiNpvJsSytI-11" edge="1">
                    <mxGeometry relative="1" as="geometry"/>
                </mxCell>
                <mxCell id="vGGuUEkwUBiNpvJsSytI-7" value="&lt;font color=&quot;#000000&quot;&gt;FTStore.App&lt;/font&gt;" style="rounded=1;whiteSpace=wrap;html=1;fillColor=#f8cecc;strokeColor=#b85450;" parent="1" vertex="1">
                    <mxGeometry x="-7985" y="-1265" width="170" height="60" as="geometry"/>
                </mxCell>
                <mxCell id="vGGuUEkwUBiNpvJsSytI-11" value="FTStore.Lib.Common" style="rounded=1;whiteSpace=wrap;html=1;" parent="1" vertex="1">
                    <mxGeometry x="-7685" y="-1135" width="170" height="70" as="geometry"/>
                </mxCell>
                <mxCell id="vGGuUEkwUBiNpvJsSytI-37" style="edgeStyle=orthogonalEdgeStyle;rounded=0;orthogonalLoop=1;jettySize=auto;html=1;exitX=0.5;exitY=1;exitDx=0;exitDy=0;entryX=0.25;entryY=0;entryDx=0;entryDy=0;" parent="1" source="vGGuUEkwUBiNpvJsSytI-9" target="vGGuUEkwUBiNpvJsSytI-11" edge="1">
                    <mxGeometry relative="1" as="geometry">
                        <Array as="points">
                            <mxPoint x="-7745" y="-1190"/>
                            <mxPoint x="-7642" y="-1190"/>
                        </Array>
                    </mxGeometry>
                </mxCell>
                <mxCell id="vGGuUEkwUBiNpvJsSytI-9" value="&lt;font color=&quot;#000000&quot;&gt;FTStore.Domain&lt;/font&gt;" style="rounded=1;whiteSpace=wrap;html=1;fillColor=#f8cecc;strokeColor=#b85450;" parent="1" vertex="1">
                    <mxGeometry x="-7830" y="-1370" width="170" height="70" as="geometry"/>
                </mxCell>
                <mxCell id="vGGuUEkwUBiNpvJsSytI-32" style="edgeStyle=orthogonalEdgeStyle;rounded=0;orthogonalLoop=1;jettySize=auto;html=1;exitX=0.75;exitY=0;exitDx=0;exitDy=0;entryX=1;entryY=0.75;entryDx=0;entryDy=0;" parent="1" source="vGGuUEkwUBiNpvJsSytI-5" target="vGGuUEkwUBiNpvJsSytI-14" edge="1">
                    <mxGeometry relative="1" as="geometry"/>
                </mxCell>
                <mxCell id="vGGuUEkwUBiNpvJsSytI-34" style="edgeStyle=orthogonalEdgeStyle;rounded=0;orthogonalLoop=1;jettySize=auto;html=1;exitX=0.25;exitY=0;exitDx=0;exitDy=0;entryX=1;entryY=0.5;entryDx=0;entryDy=0;" parent="1" source="vGGuUEkwUBiNpvJsSytI-5" target="vGGuUEkwUBiNpvJsSytI-7" edge="1">
                    <mxGeometry relative="1" as="geometry"/>
                </mxCell>
                <mxCell id="vGGuUEkwUBiNpvJsSytI-35" style="edgeStyle=orthogonalEdgeStyle;rounded=0;orthogonalLoop=1;jettySize=auto;html=1;exitX=0.5;exitY=0;exitDx=0;exitDy=0;entryX=1;entryY=0.75;entryDx=0;entryDy=0;" parent="1" source="vGGuUEkwUBiNpvJsSytI-5" target="vGGuUEkwUBiNpvJsSytI-9" edge="1">
                    <mxGeometry relative="1" as="geometry">
                        <Array as="points">
                            <mxPoint x="-7320" y="-1265"/>
                            <mxPoint x="-7625" y="-1265"/>
                            <mxPoint x="-7625" y="-1317"/>
                        </Array>
                    </mxGeometry>
                </mxCell>
                <mxCell id="vGGuUEkwUBiNpvJsSytI-36" style="edgeStyle=orthogonalEdgeStyle;rounded=0;orthogonalLoop=1;jettySize=auto;html=1;exitX=0;exitY=0.5;exitDx=0;exitDy=0;entryX=1;entryY=0.5;entryDx=0;entryDy=0;" parent="1" source="vGGuUEkwUBiNpvJsSytI-5" target="vGGuUEkwUBiNpvJsSytI-11" edge="1">
                    <mxGeometry relative="1" as="geometry"/>
                </mxCell>
                <mxCell id="vGGuUEkwUBiNpvJsSytI-43" style="edgeStyle=orthogonalEdgeStyle;rounded=0;orthogonalLoop=1;jettySize=auto;html=1;exitX=0.25;exitY=1;exitDx=0;exitDy=0;entryX=0.75;entryY=0;entryDx=0;entryDy=0;" parent="1" source="vGGuUEkwUBiNpvJsSytI-5" target="vGGuUEkwUBiNpvJsSytI-23" edge="1">
                    <mxGeometry relative="1" as="geometry"/>
                </mxCell>
                <mxCell id="vGGuUEkwUBiNpvJsSytI-49" style="edgeStyle=orthogonalEdgeStyle;rounded=0;orthogonalLoop=1;jettySize=auto;html=1;exitX=0.5;exitY=1;exitDx=0;exitDy=0;entryX=0.25;entryY=0;entryDx=0;entryDy=0;" parent="1" source="vGGuUEkwUBiNpvJsSytI-5" target="vGGuUEkwUBiNpvJsSytI-44" edge="1">
                    <mxGeometry relative="1" as="geometry"/>
                </mxCell>
                <mxCell id="vGGuUEkwUBiNpvJsSytI-50" style="edgeStyle=orthogonalEdgeStyle;rounded=0;orthogonalLoop=1;jettySize=auto;html=1;exitX=0.75;exitY=1;exitDx=0;exitDy=0;entryX=0.75;entryY=0;entryDx=0;entryDy=0;" parent="1" source="vGGuUEkwUBiNpvJsSytI-5" target="vGGuUEkwUBiNpvJsSytI-46" edge="1">
                    <mxGeometry relative="1" as="geometry">
                        <Array as="points">
                            <mxPoint x="-7277" y="-975"/>
                            <mxPoint x="-7457" y="-975"/>
                        </Array>
                    </mxGeometry>
                </mxCell>
                <mxCell id="vGGuUEkwUBiNpvJsSytI-5" value="FTStore.Crosscutting" style="rounded=1;whiteSpace=wrap;html=1;" parent="1" vertex="1">
                    <mxGeometry x="-7405" y="-1135" width="170" height="70" as="geometry"/>
                </mxCell>
                <mxCell id="vGGuUEkwUBiNpvJsSytI-38" style="edgeStyle=orthogonalEdgeStyle;rounded=0;orthogonalLoop=1;jettySize=auto;html=1;exitX=0;exitY=0.5;exitDx=0;exitDy=0;entryX=1;entryY=0.5;entryDx=0;entryDy=0;" parent="1" source="vGGuUEkwUBiNpvJsSytI-14" target="vGGuUEkwUBiNpvJsSytI-9" edge="1">
                    <mxGeometry relative="1" as="geometry"/>
                </mxCell>
                <mxCell id="vGGuUEkwUBiNpvJsSytI-40" style="edgeStyle=orthogonalEdgeStyle;rounded=0;orthogonalLoop=1;jettySize=auto;html=1;exitX=0.25;exitY=0;exitDx=0;exitDy=0;entryX=0.25;entryY=0;entryDx=0;entryDy=0;" parent="1" source="vGGuUEkwUBiNpvJsSytI-14" target="vGGuUEkwUBiNpvJsSytI-7" edge="1">
                    <mxGeometry relative="1" as="geometry"/>
                </mxCell>
                <mxCell id="vGGuUEkwUBiNpvJsSytI-41" style="edgeStyle=orthogonalEdgeStyle;rounded=0;orthogonalLoop=1;jettySize=auto;html=1;exitX=0.25;exitY=1;exitDx=0;exitDy=0;entryX=0.75;entryY=0;entryDx=0;entryDy=0;" parent="1" source="vGGuUEkwUBiNpvJsSytI-14" target="vGGuUEkwUBiNpvJsSytI-11" edge="1">
                    <mxGeometry relative="1" as="geometry"/>
                </mxCell>
                <mxCell id="vGGuUEkwUBiNpvJsSytI-14" value="&lt;font color=&quot;#000000&quot;&gt;FTStore.Infra&lt;/font&gt;" style="rounded=1;whiteSpace=wrap;html=1;fillColor=#f8cecc;strokeColor=#b85450;" parent="1" vertex="1">
                    <mxGeometry x="-7585" y="-1370" width="170" height="70" as="geometry"/>
                </mxCell>
                <mxCell id="vGGuUEkwUBiNpvJsSytI-42" style="edgeStyle=orthogonalEdgeStyle;rounded=0;orthogonalLoop=1;jettySize=auto;html=1;exitX=0.25;exitY=0;exitDx=0;exitDy=0;entryX=0;entryY=0.75;entryDx=0;entryDy=0;" parent="1" source="vGGuUEkwUBiNpvJsSytI-23" target="vGGuUEkwUBiNpvJsSytI-11" edge="1">
                    <mxGeometry relative="1" as="geometry"/>
                </mxCell>
                <mxCell id="vGGuUEkwUBiNpvJsSytI-45" style="edgeStyle=orthogonalEdgeStyle;rounded=0;orthogonalLoop=1;jettySize=auto;html=1;exitX=0.75;exitY=1;exitDx=0;exitDy=0;entryX=0;entryY=0.5;entryDx=0;entryDy=0;" parent="1" source="vGGuUEkwUBiNpvJsSytI-23" target="vGGuUEkwUBiNpvJsSytI-44" edge="1">
                    <mxGeometry relative="1" as="geometry"/>
                </mxCell>
                <mxCell id="vGGuUEkwUBiNpvJsSytI-23" value="FTStore.Auth.App" style="rounded=1;whiteSpace=wrap;html=1;fillColor=#fff2cc;strokeColor=#d6b656;fontColor=#000000;" parent="1" vertex="1">
                    <mxGeometry x="-7980" y="-990" width="170" height="60" as="geometry"/>
                </mxCell>
                <mxCell id="vGGuUEkwUBiNpvJsSytI-44" value="FTStore.Auth.Domain" style="rounded=1;whiteSpace=wrap;html=1;fillColor=#fff2cc;strokeColor=#d6b656;fontColor=#000000;" parent="1" vertex="1">
                    <mxGeometry x="-7790" y="-915" width="170" height="60" as="geometry"/>
                </mxCell>
                <mxCell id="vGGuUEkwUBiNpvJsSytI-48" value="" style="edgeStyle=orthogonalEdgeStyle;rounded=0;orthogonalLoop=1;jettySize=auto;html=1;" parent="1" source="vGGuUEkwUBiNpvJsSytI-46" target="vGGuUEkwUBiNpvJsSytI-44" edge="1">
                    <mxGeometry relative="1" as="geometry"/>
                </mxCell>
                <mxCell id="vGGuUEkwUBiNpvJsSytI-46" value="FTStore.Auth.Infra" style="rounded=1;whiteSpace=wrap;html=1;fillColor=#fff2cc;strokeColor=#d6b656;fontColor=#000000;" parent="1" vertex="1">
                    <mxGeometry x="-7585" y="-915" width="170" height="60" as="geometry"/>
                </mxCell>
            </root>
        </mxGraphModel>
    </diagram>
</mxfile>